<svg xmlns="http://www.w3.org/2000/svg" width="512" height="512" version="1.2"><style>.e{fill:#027a16}.f{fill:#029319}.g{fill:#027b16}.h{fill:#028e1a}.i{fill:#0fab26}.l{fill:#027e16}.r{fill:#31d44c}.s{fill:#15b930}.t{fill:#049f1c}.u{fill:#028017}.v{fill:#3cdc57}.x{fill:#1bc136}.y{fill:#12b62c}.B{fill:#17bb31}.G{fill:#18bd32}.H{fill:#1ac035}.I{fill:#19be33}.J{fill:#01a116}.K{fill:#028417}.V{fill:#038919}</style><path d="M256 64V32h32v64h-32z" style="fill:#44240c"/><path d="M224 96V64h32v32z" style="fill:#723e14"/><path d="M288 96V64h32v32z" style="fill:#512c0e"/><path d="M224 128V96h32v32z" style="fill:#562e0f"/><path d="M192 160v-32h32v32z" class="e"/><path d="M224 160v-32h32v32z" class="f"/><path d="M256 160v-32h32v32z" class="g"/><path d="M160 192v-32h32v32z" class="h"/><path d="M192 192v-32h32v32z" class="i"/><path d="M224 192v-32h32v32z" style="fill:#04bf21"/><path d="M256 192v-32h32v32z" style="fill:#02a419"/><path d="M288 192v-32h32v32z" class="l"/><path d="M160 224v-32h32v32z" class="f"/><path d="M192 224v-32h32v32z" style="fill:#2bd246"/><path d="M224 224v-32h32v32z" style="fill:#29d044"/><path d="M256 224v-32h32v32z" style="fill:#2ec045"/><path d="M288 224v-32h32v32z" class="g"/><path d="M128 256v-32h32v32z" class="e"/><path d="M160 256v-32h32v32z" style="fill:#24c43e"/><path d="M192 256v-32h32v32z" style="fill:#3edd59"/><path d="M224 256v-32h32v32z" class="r"/><path d="M256 256v-32h32v32z" class="s"/><path d="M288 256v-32h32v32z" class="t"/><path d="M320 256v-32h32v32z" class="u"/><path d="M128 288v-32h32v32z" class="h"/><path d="M160 288v-32h32v32z" class="r"/><path d="M192 288v-32h32v32z" class="v"/><path d="M224 288v-32h32v32z" style="fill:#1ec93a"/><path d="M256 288v-32h32v32z" class="x"/><path d="M288 288v-32h32v32z" class="y"/><path d="M320 288v-32h32v32z" class="g"/><path d="M96 320v-32h32v32z" class="h"/><path d="M128 320v-32h32v32z" style="fill:#21c83d"/><path d="M160 320v-32h32v32z" class="v"/><path d="M192 320v-32h32v32z" style="fill:#37d350"/><path d="M224 320v-32h96v32h-32z" class="B"/><path d="M320 320v-32h32v32z" style="fill:#06a21d"/><path d="M352 320v-32h32v32z" class="g"/><path d="M64 352v-32h32v32z" style="fill:#00830f"/><path d="M96 352v-32h32v32z" class="t"/><path d="M128 352v-32h32v32z" style="fill:#2dcc46"/><path d="M160 352v-32h32v32z" style="fill:#22c73c"/><path d="M192 352v-32h32v32z" class="G"/><path d="M224 352v-32h64v32h-32v64h-32v-32z" class="H"/><path d="M288 352v-32h32v32z" class="I"/><path d="M320 352v-32h32v32z" class="y"/><path d="M352 352v-32h32v32z" class="J"/><path d="M384 352v-32h32v96h-32v-32z" class="K"/><path d="M64 384v-32h32v32z" style="fill:#038913"/><path d="M96 384v-32h32v32z" style="fill:#0ba823"/><path d="M128 384v-32h32v32z" class="B"/><path d="M160 384v-32h32v32z" class="G"/><path d="M192 384v-32h32v32z" class="x"/><path d="M256 384v-32h32v32z" class="I"/><path d="M288 384v-32h32v32z" class="G"/><path d="M320 384v-32h32v32z" class="s"/><path d="M352 384v-32h32v32z" style="fill:#00a716"/><path d="M64 416v-32h32v32z" class="g"/><path d="M96 416v-32h32v32z" style="fill:#08ac22"/><path d="M128 416v-32h32v32z" class="s"/><path d="M160 416v-32h32v32z" class="H"/><path d="M192 416v-32h32v32zM256 416v-32h32v32z" class="G"/><path d="M288 416v-32h32v32z" class="H"/><path d="M320 416v-32h32v32z" class="y"/><path d="M352 416v-32h32v32z" style="fill:#069b1b"/><path d="M96 448v-32h32v32z" class="t"/><path d="M128 448v-32h32v32z" style="fill:#038d19"/><path d="M160 448v-32h32v32z" class="s"/><path d="M192 448v-32h32v32z" class="B"/><path d="M224 448v-32h32v32z" class="I"/><path d="M256 448v-32h64v32h-32z" class="s"/><path d="M320 448v-32h32v32z" style="fill:#09a421"/><path d="M352 448v-32h32v64h-32z" class="K"/><path d="M160 480H96v-32h64z" class="h"/><path d="M160 480v-32h32v32z" style="fill:#03a81c"/><path d="M192 480v-32h32v32z" style="fill:#01a219"/><path d="M224 480v-32h32v32z" class="J"/><path d="M256 480v-32h32v32z" class="i"/><path d="M288 480v-32h32v32z" style="fill:#0ea825"/><path d="M320 480v-32h32v32z" class="V"/><path d="M160 512v-32h64v32z" class="e"/><path d="M224 512v-32h32v32z" class="V"/><path d="M256 512v-32h32v32z" class="u"/><path d="M288 512v-32h32v32z" class="l"/></svg>